<svg width="150" height="150" viewBox="0 0 150 150" fill="none" xmlns="http://www.w3.org/2000/svg">
<g clip-path="url(#clip0_270_2)">
<path d="M108.867 133.652C98.9063 139.424 87.334 142.705 75 142.705C37.6172 142.705 7.29492 112.383 7.29492 75C7.29492 37.6172 37.6172 7.29492 75 7.29492C87.334 7.29492 98.9063 10.6055 108.867 16.3477C88.6231 28.0371 75 49.9219 75 75C75 100.078 88.6231 121.934 108.867 133.652Z" fill="#92C8EC"/>
<path d="M142.822 42.9199C136.699 29.9413 127.002 19.0429 114.785 11.3964C97.7929 0.790955 77.666 -2.57819 58.1543 1.93353C38.6425 6.41596 22.0312 18.2519 11.4257 35.2441C0.790977 52.2363 -2.57816 72.3339 1.93355 91.8749C6.44527 111.387 18.2812 127.998 35.2441 138.603C47.1972 146.074 60.9082 150.029 74.9414 150.029H75.8496C89.8242 149.853 103.418 145.81 115.195 138.369C118.623 136.201 119.619 131.689 117.451 128.262C115.283 124.834 110.771 123.838 107.344 126.006C97.8808 132.012 86.9238 135.264 75.6738 135.41C64.1308 135.557 52.8515 132.363 43.0078 126.24C29.3261 117.685 19.8046 104.326 16.2011 88.623C12.5683 72.9199 15.2929 56.748 23.8476 43.0663C41.4843 14.8535 78.8086 6.24017 107.021 23.8769C116.865 30.0292 124.658 38.789 129.58 49.2187C134.385 59.3847 136.26 70.664 135 81.7968C134.561 85.8105 137.432 89.4433 141.475 89.8827C145.488 90.3222 149.121 87.4511 149.561 83.4081C151.113 69.5507 148.769 55.5468 142.822 42.9199Z" fill="#1864AB"/>
<path d="M99.1992 49.5703L63.8965 84.9023L50.8008 71.8066C47.9297 68.9355 43.3008 68.9355 40.4297 71.8066C37.5586 74.6777 37.5586 79.3066 40.4297 82.1777L58.7109 100.459C60.1465 101.895 62.0215 102.598 63.8965 102.598C65.7715 102.598 67.6465 101.895 69.082 100.459L109.57 59.9414C112.441 57.0703 112.441 52.4414 109.57 49.5703C106.699 46.6992 102.07 46.6992 99.1992 49.5703Z" fill="#1864AB"/>
</g>
<defs>
<clipPath id="clip0_270_2">
<rect width="150" height="150" fill="white"/>
</clipPath>
</defs>
</svg>
