<svg width="24" height="24" viewBox="0 0 24 24" fill="none" xmlns="http://www.w3.org/2000/svg">
<path d="M6.375 14.8125V17.625M10.125 12V17.625M13.875 9.1875V17.625M17.625 6.375V17.625M4.5 22.3125H19.5C20.2459 22.3125 20.9613 22.0162 21.4887 21.4887C22.0162 20.9613 22.3125 20.2459 22.3125 19.5V4.5C22.3125 3.75408 22.0162 3.03871 21.4887 2.51126C20.9613 1.98382 20.2459 1.6875 19.5 1.6875H4.5C3.75408 1.6875 3.03871 1.98382 2.51126 2.51126C1.98382 3.03871 1.6875 3.75408 1.6875 4.5V19.5C1.6875 20.2459 1.98382 20.9613 2.51126 21.4887C3.03871 22.0162 3.75408 22.3125 4.5 22.3125Z" stroke="#212529" stroke-width="1.5" stroke-linecap="round" stroke-linejoin="round"/>
</svg>
