<svg width="149" height="149" viewBox="0 0 149 149" fill="none" xmlns="http://www.w3.org/2000/svg">
<path d="M38.4871 136.172V146.168H11.9905V136.172C11.9884 135.427 12.1064 134.69 12.3379 134.001C12.5693 133.313 12.9095 132.688 13.339 132.161C13.7684 131.635 14.2785 131.218 14.84 130.934C15.4015 130.65 16.0033 130.506 16.6106 130.508H33.867C34.4744 130.506 35.0761 130.65 35.6376 130.934C36.1991 131.218 36.7092 131.635 37.1386 132.161C37.5681 132.688 37.9083 133.313 38.1397 134.001C38.3712 134.69 38.4892 135.427 38.4871 136.172Z" fill="#CFCFD1"/>
<path d="M117.514 27.2267H130.035V130.501H117.514V27.2267ZM18.989 27.2267H31.5097V130.501H18.989V27.2267Z" fill="white"/>
<path d="M137.012 136.172V146.168H110.515V136.172C110.513 135.427 110.631 134.69 110.862 134.001C111.094 133.313 111.434 132.688 111.863 132.161C112.293 131.635 112.803 131.218 113.364 130.934C113.926 130.65 114.528 130.506 115.135 130.508H132.391C132.999 130.506 133.601 130.65 134.162 130.934C134.723 131.218 135.234 131.635 135.663 132.161C136.092 132.688 136.433 133.313 136.664 134.001C136.896 134.69 137.014 135.427 137.012 136.172Z" fill="#CFCFD1"/>
<path d="M142.071 62.1294C144.612 62.1294 146.691 59.6093 146.691 56.466V36.2754L132.738 62.1294H142.071ZM38.7411 2.83182L6.72343 62.1294H26.2435L58.2611 2.83182H38.7411ZM80.738 2.83182L48.7207 62.1294H68.2638L100.281 2.83182H80.738ZM6.93112 2.83182C6.32381 2.82922 5.72208 2.97393 5.1606 3.25763C4.59911 3.54132 4.08895 3.95839 3.65952 4.48481C3.23008 5.01122 2.88985 5.63659 2.65842 6.32488C2.427 7.01318 2.30894 7.7508 2.31106 8.49526V28.6859L16.2639 2.83182H6.93112ZM122.759 2.83182L90.741 62.1294H110.261L142.279 2.83182H122.759Z" fill="#B00020"/>
<path d="M16.2638 2.83183L2.31104 28.6859V56.4656C2.31104 59.524 4.2515 61.9876 6.7234 62.129L38.7411 2.83142L16.2638 2.83183ZM58.2611 2.83183L26.2434 62.1294H48.7206L80.738 2.83183H58.2611ZM100.281 2.83183L68.2637 62.1294H90.7409L122.759 2.83183H100.281ZM142.279 2.83183L110.261 62.1294H132.738L146.691 36.2754V8.49568C146.691 5.43724 144.727 2.97368 142.279 2.83183Z" fill="white"/>
<path d="M142.388 0.0028714C142.368 0.00123149 142.348 0.00902127 142.328 0.00820131C142.311 0.00779134 142.296 0 142.28 0H6.93008C3.10869 0 0 3.81075 0 8.49516V56.4667C0 61.0129 2.90568 64.7437 6.61202 64.9594C6.65049 64.9623 6.68661 64.9623 6.72273 64.9623H16.6782V127.676H16.6103C12.7889 127.676 9.68025 131.487 9.68025 136.171V146.168C9.68007 146.54 9.7397 146.909 9.85573 147.252C9.97176 147.596 10.1419 147.908 10.3564 148.171C10.571 148.434 10.8257 148.643 11.1061 148.785C11.3864 148.927 11.6869 149 11.9903 149H38.4862C38.7896 149 39.0901 148.927 39.3704 148.785C39.6508 148.643 39.9055 148.434 40.12 148.171C40.3346 147.908 40.5047 147.596 40.6207 147.252C40.7368 146.909 40.7964 146.54 40.7962 146.168V136.171C40.7962 131.487 37.6875 127.676 33.8661 127.676H33.8187V89.6212H115.204V127.676H115.134C111.312 127.676 108.204 131.487 108.204 136.171V146.168C108.204 146.54 108.263 146.909 108.379 147.252C108.495 147.596 108.665 147.908 108.88 148.171C109.095 148.434 109.349 148.643 109.63 148.785C109.91 148.927 110.21 149 110.514 149H137.012C137.315 149 137.616 148.927 137.896 148.785C138.177 148.643 138.431 148.434 138.646 148.171C138.86 147.908 139.031 147.596 139.147 147.252C139.263 146.909 139.322 146.54 139.322 146.168V136.171C139.322 131.487 136.213 127.676 132.392 127.676H132.345V64.9627H142.07C145.891 64.9627 149 61.1519 149 56.4675V8.49598C149 3.94645 146.096 0.21606 142.388 0.0028714ZM36.1758 136.172V143.337H14.3003V136.172C14.3003 134.584 15.3154 133.34 16.6103 133.34H33.8661C35.1608 133.34 36.1758 134.584 36.1758 136.172ZM134.702 136.172V143.337H112.823V136.172C112.823 134.584 113.839 133.34 115.134 133.34H132.391C133.687 133.34 134.702 134.584 134.702 136.172ZM131.497 59.2988H114.561L143.292 6.08695C143.625 6.34261 143.9 6.69777 144.09 7.11908C144.28 7.5404 144.38 8.01405 144.38 8.49557V35.4225L143.722 36.6406L131.497 59.2988ZM121.547 36.099L109.02 59.2988H95.0402L111.473 28.8637L124 5.66385H137.98L121.547 36.099ZM89.4991 59.2988H72.5644L101.522 5.66385H118.459L89.4991 59.2988ZM54.4016 83.9471L67.5356 64.9737H81.4884L94.6202 83.9471H54.4016ZM67.0233 59.2988H53.021L81.9784 5.66385H95.9807L67.0233 59.2988ZM47.4802 59.2988H30.5431L59.5029 5.66385H76.4376L47.4802 59.2988ZM5.70969 58.8757C5.37619 58.6207 5.10116 58.2657 4.91053 57.8443C4.71989 57.4229 4.61993 56.949 4.62006 56.4671V29.5377L17.5043 5.66385H34.4411L5.70969 58.8757ZM4.62006 8.49557C4.62006 6.90813 5.6351 5.66385 6.93008 5.66385H11.9649L7.94681 13.1091L4.62006 19.2723V8.49557ZM39.9822 5.66385H53.9618L25.0019 59.2988H11.0224L39.9822 5.66385ZM29.1983 64.9627V127.671H21.2979V64.9627H29.1983ZM33.8187 64.9627H61.4828L48.3333 83.9582H33.8187V64.9627ZM100.687 83.9582L87.5396 64.9627H115.204V83.9582H100.687ZM127.724 127.671H119.824V64.9627H127.724V127.671ZM144.38 56.4671C144.379 57.218 144.136 57.9379 143.703 58.4688C143.269 58.9998 142.682 59.2983 142.07 59.2988H137.036L144.38 45.6904V56.4671Z" fill="#3E3E3E"/>
</svg>
