<svg width="37" height="43" viewBox="0 0 37 43" fill="none" xmlns="http://www.w3.org/2000/svg">
<path d="M11.9375 21.3125H19.75M11.9375 27.5625H19.75M11.9375 33.8125H19.75M26 35.375H30.6875C31.9307 35.375 33.123 34.8811 34.0021 34.0021C34.8811 33.123 35.375 31.9307 35.375 30.6875V9.0375C35.375 6.67292 33.6146 4.66667 31.2583 4.47083C30.4791 4.40621 29.6992 4.35065 28.9187 4.30417M28.9187 4.30417C29.057 4.75226 29.1251 5.21856 29.125 5.6875C29.125 6.1019 28.9604 6.49933 28.6674 6.79235C28.3743 7.08538 27.9769 7.25 27.5625 7.25H18.1875C17.325 7.25 16.625 6.55 16.625 5.6875C16.625 5.20625 16.6979 4.74167 16.8333 4.30417M28.9187 4.30417C28.3292 2.39167 26.5458 1 24.4375 1H21.3125C20.3109 1.00024 19.3357 1.32113 18.5297 1.91571C17.7237 2.51028 17.1292 3.34729 16.8333 4.30417M16.8333 4.30417C16.05 4.35208 15.2708 4.40833 14.4917 4.47083C12.1354 4.66667 10.375 6.67292 10.375 9.0375V13.5M10.375 13.5H3.34375C2.05 13.5 1 14.55 1 15.8437V39.2812C1 40.575 2.05 41.625 3.34375 41.625H23.6562C24.95 41.625 26 40.575 26 39.2812V15.8437C26 14.55 24.95 13.5 23.6562 13.5H10.375ZM7.25 21.3125H7.26667V21.3292H7.25V21.3125ZM7.25 27.5625H7.26667V27.5792H7.25V27.5625ZM7.25 33.8125H7.26667V33.8292H7.25V33.8125Z" stroke="white" stroke-width="1.5" stroke-linecap="round" stroke-linejoin="round"/>
</svg>
