<svg width="22" height="22" viewBox="0 0 22 22" fill="none" xmlns="http://www.w3.org/2000/svg">
<path d="M21.0454 7.25644L12.5516 0.610188C11.511 -0.203396 10.0012 -0.203396 8.96062 0.610188L0.468 7.25535C0.169875 7.48827 0 7.83277 0 8.2011V20.706C0 21.3777 0.568125 21.9302 1.26562 21.9302H6.96038C7.65788 21.9302 8.226 21.3777 8.226 20.706V12.7912H13.2874V20.706C13.2874 21.3777 13.8555 21.9302 14.553 21.9302H20.2478C20.9453 21.9302 21.5134 21.3777 21.5134 20.706V8.2011C21.5123 7.83277 21.3424 7.48827 21.0454 7.25644ZM20.2466 20.7125H14.5519V12.7858C14.5519 12.1141 13.9837 11.5735 13.2862 11.5735H8.22487C7.52737 11.5735 6.95925 12.1141 6.95925 12.7858V20.7125H1.26562V8.2011L9.75938 1.55594C10.3365 1.1031 11.1769 1.10419 11.754 1.55594L20.2478 8.2011L20.2472 14.4568L20.2466 20.7125Z" fill="#212529"/>
</svg>
