<svg width="24" height="24" viewBox="0 0 24 24" fill="none" xmlns="http://www.w3.org/2000/svg">
<path d="M22.3125 14.6875V20C22.3125 21.3675 21.3287 22.545 19.9725 22.725C17.3637 23.0712 14.7025 23.25 12 23.25C9.29749 23.25 6.63624 23.0712 4.02749 22.725C2.67124 22.545 1.68749 21.3675 1.68749 20V14.6875M22.3125 14.6875C22.6093 14.4296 22.8468 14.1104 23.0086 13.752C23.1704 13.3936 23.2528 13.0045 23.25 12.6113V7.8825C23.25 6.53125 22.29 5.36375 20.9537 5.16375C19.5379 4.95177 18.1149 4.79042 16.6875 4.68M22.3125 14.6875C22.07 14.8937 21.7875 15.0562 21.4712 15.1625C18.4165 16.1761 15.2185 16.691 12 16.6875C8.68999 16.6875 5.50624 16.1512 2.52874 15.1625C2.22032 15.0599 1.93465 14.8986 1.68749 14.6875M1.68749 14.6875C1.39067 14.4296 1.15319 14.1104 0.991366 13.752C0.829539 13.3936 0.747196 13.0045 0.749993 12.6113V7.8825C0.749993 6.53125 1.70999 5.36375 3.04624 5.16375C4.46211 4.95177 5.8851 4.79042 7.31249 4.68M16.6875 4.68V3.5625C16.6875 2.81658 16.3912 2.10121 15.8637 1.57376C15.3363 1.04632 14.6209 0.75 13.875 0.75H10.125C9.37907 0.75 8.6637 1.04632 8.13626 1.57376C7.60881 2.10121 7.31249 2.81658 7.31249 3.5625V4.68M16.6875 4.68C13.5671 4.43885 10.4328 4.43885 7.31249 4.68M12 12.9375H12.01V12.9475H12V12.9375Z" stroke="#212529" stroke-width="1.5" stroke-linecap="round" stroke-linejoin="round"/>
</svg>
