<svg width="24" height="24" viewBox="0 0 24 24" fill="none" xmlns="http://www.w3.org/2000/svg">
<path d="M8.9925 1.925C9.105 1.2475 9.6925 0.75 10.38 0.75H13.6212C14.3087 0.75 14.8962 1.2475 15.0087 1.925L15.275 3.52625C15.3537 3.99375 15.6662 4.38375 16.0812 4.61375C16.1737 4.66375 16.265 4.7175 16.3562 4.7725C16.7612 5.0175 17.2562 5.09375 17.7 4.9275L19.2212 4.3575C19.533 4.24026 19.8762 4.23747 20.1898 4.34964C20.5035 4.46181 20.7671 4.68164 20.9337 4.97L22.5537 7.77875C22.7201 8.06713 22.7787 8.40516 22.7192 8.73271C22.6597 9.06025 22.4859 9.35606 22.2287 9.5675L20.975 10.6012C20.6087 10.9012 20.4275 11.3675 20.4362 11.8413C20.4383 11.9475 20.4383 12.0538 20.4362 12.16C20.4275 12.6325 20.6087 13.0975 20.9737 13.3975L22.23 14.4325C22.76 14.87 22.8975 15.625 22.555 16.22L20.9325 19.0287C20.7661 19.317 20.5027 19.5369 20.1894 19.6493C19.876 19.7617 19.533 19.7593 19.2212 19.6425L17.7 19.0725C17.2562 18.9063 16.7625 18.9825 16.355 19.2275C16.2644 19.2826 16.1727 19.3359 16.08 19.3875C15.6662 19.6163 15.3537 20.0062 15.275 20.4737L15.0087 22.0737C14.8962 22.7525 14.3087 23.25 13.6212 23.25H10.3787C9.69125 23.25 9.10375 22.7525 8.99125 22.075L8.725 20.4737C8.6475 20.0062 8.335 19.6162 7.92 19.3862C7.82731 19.3351 7.73562 19.2822 7.645 19.2275C7.23875 18.9825 6.745 18.9063 6.3 19.0725L4.77875 19.6425C4.46716 19.7594 4.1242 19.762 3.81087 19.6499C3.49754 19.5377 3.23414 19.3181 3.0675 19.03L1.44625 16.2212C1.27993 15.9329 1.22131 15.5948 1.28082 15.2673C1.34033 14.9398 1.51411 14.6439 1.77125 14.4325L3.02625 13.3988C3.39125 13.0988 3.5725 12.6325 3.56375 12.1587C3.56179 12.0525 3.56179 11.9462 3.56375 11.84C3.5725 11.3675 3.39125 10.9025 3.02625 10.6025L1.77125 9.5675C1.51442 9.35612 1.34084 9.06054 1.28134 8.73328C1.22184 8.40602 1.28027 8.06826 1.44625 7.78L3.0675 4.97125C3.23398 4.68267 3.49751 4.46257 3.81114 4.35017C4.12476 4.23777 4.46811 4.24037 4.78 4.3575L6.3 4.9275C6.745 5.09375 7.23875 5.0175 7.645 4.7725C7.735 4.7175 7.8275 4.66375 7.92 4.6125C8.335 4.38375 8.6475 3.99375 8.725 3.52625L8.9925 1.925Z" stroke="#212529" stroke-width="1.5" stroke-linecap="round" stroke-linejoin="round"/>
<path d="M15.75 12C15.75 12.9946 15.3549 13.9484 14.6517 14.6517C13.9484 15.3549 12.9946 15.75 12 15.75C11.0054 15.75 10.0516 15.3549 9.34835 14.6517C8.64509 13.9484 8.25 12.9946 8.25 12C8.25 11.0054 8.64509 10.0516 9.34835 9.34835C10.0516 8.64509 11.0054 8.25 12 8.25C12.9946 8.25 13.9484 8.64509 14.6517 9.34835C15.3549 10.0516 15.75 11.0054 15.75 12Z" stroke="#212529" stroke-width="1.5" stroke-linecap="round" stroke-linejoin="round"/>
</svg>
