<svg width="26" height="24" viewBox="0 0 26 24" fill="none" xmlns="http://www.w3.org/2000/svg">
<path d="M16.75 20.91C17.8162 21.2196 18.921 21.3761 20.0312 21.375C21.8168 21.3776 23.579 20.9705 25.1825 20.185C25.2299 19.0646 24.9108 17.9593 24.2735 17.0367C23.6362 16.114 22.7155 15.4242 21.6509 15.0719C20.5863 14.7196 19.4359 14.7239 18.374 15.0842C17.3121 15.4446 16.3966 16.1413 15.7662 17.0688M16.75 20.91V20.9062C16.75 19.515 16.3925 18.2063 15.7662 17.0688M16.75 20.91V21.0425C14.3443 22.4914 11.5883 23.2547 8.78 23.25C5.86625 23.25 3.14 22.4437 0.8125 21.0425L0.81125 20.9062C0.810291 19.1368 1.39827 17.4174 2.48248 16.0191C3.56669 14.6207 5.08547 13.623 6.79936 13.1832C8.51326 12.7435 10.3248 12.8866 11.9483 13.5901C13.5719 14.2936 14.9151 15.5175 15.7662 17.0688M13 4.96875C13 6.08763 12.5555 7.16069 11.7644 7.95186C10.9732 8.74303 9.90013 9.1875 8.78125 9.1875C7.66237 9.1875 6.58931 8.74303 5.79814 7.95186C5.00697 7.16069 4.5625 6.08763 4.5625 4.96875C4.5625 3.84987 5.00697 2.77681 5.79814 1.98564C6.58931 1.19447 7.66237 0.75 8.78125 0.75C9.90013 0.75 10.9732 1.19447 11.7644 1.98564C12.5555 2.77681 13 3.84987 13 4.96875ZM23.3125 7.78125C23.3125 8.65149 22.9668 9.48609 22.3514 10.1014C21.7361 10.7168 20.9015 11.0625 20.0312 11.0625C19.161 11.0625 18.3264 10.7168 17.7111 10.1014C17.0957 9.48609 16.75 8.65149 16.75 7.78125C16.75 6.91101 17.0957 6.07641 17.7111 5.46106C18.3264 4.8457 19.161 4.5 20.0312 4.5C20.9015 4.5 21.7361 4.8457 22.3514 5.46106C22.9668 6.07641 23.3125 6.91101 23.3125 7.78125Z" stroke="#212529" stroke-width="1.5" stroke-linecap="round" stroke-linejoin="round"/>
</svg>
