<svg width="44" height="37" viewBox="0 0 44 37" fill="none" xmlns="http://www.w3.org/2000/svg">
<path d="M6.36965 14.376C5.8142 18.6087 5.48322 22.8676 5.37811 27.1349C11.1916 29.5523 16.7579 32.521 22 36C27.2428 32.5209 32.8097 29.5522 38.6239 27.1349C38.5187 22.8676 38.1877 18.6087 37.6324 14.376M37.6324 14.376C39.3994 13.785 41.1906 13.2382 43 12.7397C36.4098 8.1408 29.3749 4.20808 22 1C14.625 4.20875 7.59018 8.14215 1 12.7417C2.80392 13.2374 4.5938 13.7824 6.36763 14.376C11.7568 16.1794 16.9856 18.4266 22 21.0942C27.0137 18.4267 32.2439 16.1796 37.6324 14.376ZM11.398 24.1316C11.7997 24.1316 12.1849 23.9728 12.469 23.6901C12.753 23.4073 12.9126 23.0238 12.9126 22.624C12.9126 22.2241 12.753 21.8406 12.469 21.5579C12.1849 21.2751 11.7997 21.1163 11.398 21.1163C10.9963 21.1163 10.6111 21.2751 10.3271 21.5579C10.043 21.8406 9.88345 22.2241 9.88345 22.624C9.88345 23.0238 10.043 23.4073 10.3271 23.6901C10.6111 23.9728 10.9963 24.1316 11.398 24.1316ZM11.398 24.1316V16.7441C14.8244 14.624 18.3636 12.69 22 10.9506M7.84989 34.1687C8.97667 33.0498 9.8702 31.7203 10.4791 30.2565C11.088 28.7927 11.4003 27.2236 11.398 25.6393V22.624" stroke="white" stroke-width="1.5" stroke-linecap="round" stroke-linejoin="round"/>
</svg>
