<svg width="41" height="41" viewBox="0 0 41 41" fill="none" xmlns="http://www.w3.org/2000/svg">
<path d="M38.3751 25.1583V34.3667C38.3751 36.737 36.67 38.778 34.3191 39.09C29.7973 39.6902 25.1845 40 20.5001 40C15.8158 40 11.203 39.6902 6.68112 39.09C4.33029 38.778 2.62512 36.737 2.62512 34.3667V25.1583M38.3751 25.1583C38.8896 24.7112 39.3012 24.1581 39.5817 23.5369C39.8622 22.9157 40.005 22.2411 40.0001 21.5595V13.363C40.0001 11.0208 38.3361 8.99717 36.02 8.6505C33.5658 8.28308 31.0993 8.0034 28.6251 7.812M38.3751 25.1583C37.9548 25.5158 37.4651 25.7975 36.917 25.9817C31.6221 27.7385 26.0788 28.631 20.5001 28.625C14.7628 28.625 9.24429 27.6955 4.08329 25.9817C3.54868 25.8038 3.05353 25.5243 2.62512 25.1583M2.62512 25.1583C2.11063 24.7112 1.699 24.1581 1.4185 23.5369C1.138 22.9157 0.995272 22.2411 1.00012 21.5595V13.363C1.00012 11.0208 2.66412 8.99717 4.98029 8.6505C7.43446 8.28307 9.90098 8.00339 12.3751 7.812M28.6251 7.812V5.875C28.6251 4.58207 28.1115 3.34209 27.1973 2.42785C26.283 1.51361 25.0431 1 23.7501 1H17.2501C15.9572 1 14.7172 1.51361 13.803 2.42785C12.8887 3.34209 12.3751 4.58207 12.3751 5.875V7.812M28.6251 7.812C23.2165 7.394 17.7837 7.394 12.3751 7.812M20.5001 22.125H20.5175V22.1423H20.5001V22.125Z" stroke="white" stroke-width="1.5" stroke-linecap="round" stroke-linejoin="round"/>
</svg>
